[center][img]http://img69.imageshack.us/img69/7773/82412725.jpg[/img]
[img]http://img217.imageshack.us/img217/3816/17fv9t.jpg[/img][/center]

[center][b][color="#C0C0C0"][size="7"]Code Name: The Cleaner (2007)[/size][/color]
[color="#800080"][size="5"]720p x264 Brrip Hindi Dubbed[/size][/color]
[size="5"][size="4"][color="#C0C0C0"][Arihant-TDT][/color][/size][/b][/size][/center]

[center][img]http://www.cover-dc.de/download/previews/code_name_the_cleaner_blu_ray_kv_hq_600_mit_prev.jpg[/img]

[code] 
http://www.imdb.com/title/tt0462229/
[/code][/center]

[center][color="#FF0000"][size="5"]Exclusive TDT Release[/size][/color]
[/center]


[center]
[img]http://img705.imageshack.us/img705/954/infomm.png[/img][/center]

[code]
eneral
Complete name                    : G:\Movies\Hollywood\Code Name The Cleaner (2007) Brrip Hindi Dubbed by Arihant !!!Team TDT!!!\Code Name The Cleaner (2007) Brrip Hindi Dubbed by Arihant !!!Team TDT!!!.mp4
Format                           : MPEG-4
Format profile                   : Base Media
Codec ID                         : isom
File size                        : 1.40 GiB
Duration                         : 1h 31mn
Overall bit rate mode            : Variable
Overall bit rate                 : 2 194 Kbps
Encoded date                     : UTC 2011-12-16 16:10:09
Tagged date                      : UTC 2011-12-16 16:10:09

Video
ID                               : 1
Format                           : AVC
Format/Info                      : Advanced Video Codec
Format profile                   : High@L4.1
Format settings, CABAC           : Yes
Format settings, ReFrames        : 3 frames
Format settings, GOP             : M=1, N=23
Codec ID                         : avc1
Codec ID/Info                    : Advanced Video Coding
Duration                         : 1h 31mn
Bit rate mode                    : Variable
Bit rate                         : 2 000 Kbps
Maximum bit rate                 : 40.0 Mbps
Width                            : 1 280 pixels
Height                           : 688 pixels
Display aspect ratio             : 1.860
Frame rate mode                  : Constant
Frame rate                       : 24.000 fps
Color space                      : YUV
Chroma subsampling               : 4:2:0
Bit depth                        : 8 bits
Scan type                        : Progressive
Bits/(Pixel*Frame)               : 0.095
Stream size                      : 1.27 GiB (91%)
Writing library                  : x264 core 116 r2074 2641b9e
Encoding settings                : cabac=1 / ref=3 / deblock=1:0:0 / analyse=0x3:0x113 / me=hex / subme=7 / psy=1 / psy_rd=1.00:0.00 / mixed_ref=1 / me_range=16 / chroma_me=1 / trellis=1 / 8x8dct=1 / cqm=0 / deadzone=21,11 / fast_pskip=1 / chroma_qp_offset=-2 / threads=6 / sliced_threads=0 / slices=4 / nr=0 / decimate=1 / interlaced=0 / bluray_compat=1 / constrained_intra=0 / bframes=3 / b_pyramid=1 / b_adapt=0 / b_bias=0 / direct=1 / weightb=1 / open_gop=1 / weightp=1 / keyint=24 / keyint_min=2 / scenecut=40 / intra_refresh=0 / rc_lookahead=24 / rc=2pass / mbtree=1 / bitrate=2000 / ratetol=1.0 / qcomp=0.60 / qpmin=0 / qpmax=69 / qpstep=4 / cplxblur=20.0 / qblur=0.5 / vbv_maxrate=40000 / vbv_bufsize=30000 / nal_hrd=vbr / ip_ratio=1.40 / aq=1:1.00
Encoded date                     : UTC 2011-12-11 04:25:58
Tagged date                      : UTC 2011-12-16 16:11:01

Audio
ID                               : 2
Format                           : AC-3
Format/Info                      : Audio Coding 3
Mode extension                   : CM (complete main)
Codec ID                         : ac-3
Duration                         : 1h 30mn
Bit rate mode                    : Constant
Bit rate                         : 192 Kbps
Channel(s)                       : 2 channels
Channel positions                : Front: L R
Sampling rate                    : 48.0 KHz
Bit depth                        : 16 bits
Compression mode                 : Lossy
Stream size                      : 125 MiB (9%)
Title                            : Arihant
Language                         : Hindi
Encoded date                     : UTC 2011-12-16 16:10:46
Tagged date                      : UTC 2011-12-16 16:11:01
[/code]

[center]
[img]http://img834.imageshack.us/img834/2090/screensmu.png[/img]
[/center]

[center][img]http://img20.imageshack.us/img20/5277/snapshot20111216220859.jpg[/img]
[img]http://img843.imageshack.us/img843/9818/snapshot20111216220833.jpg[/img]
[img]http://img4.imageshack.us/img4/6971/snapshot20111216220807.jpg[/img]
[img]http://img62.imageshack.us/img62/5561/snapshot20111216220754.jpg[/img]
[img]http://img215.imageshack.us/img215/1897/snapshot20111216220750.jpg[/img]
[img]http://img845.imageshack.us/img845/7004/snapshot20111216220746.jpg[/img]
[img]http://img833.imageshack.us/img833/4316/snapshot20111216220729.jpg[/img][/center]


[/center]
[center][b]Sample is in MKV.[/b][/center]
[code] 
http://jumbofiles.com/up4a90um5fs8
[/code]
[center][img]http://img268.imageshack.us/img268/552/seedbleed.png[/img][/center]